# xmcd
#
# Track frame offsets:
#	150
#	12817
#	22340
#	34093
#	50047
#	64486
#	80154
#	88113
#	98479
#	110354
#	123523
#	135292
#	152506
#	162785
#	173422
#	187842
#	196699
#
# Disc length: 2704 seconds
#
# Revision: 2
# Processed by: cddbd v1.5.2PL0 Copyright (c) Steve Scherf et al.
# Submitted via: EZCDAudioConverter 2.2.2.1
#
DISCID=d10a8e11
DTITLE=Various Artist - 金曲滿天星演唱會 Disc 1
DYEAR=2002
DGENRE=Oldies
TTITLE0=Various Artist - 金曲再造
TTITLE1=森森、斑斑 - 神鳳
TTITLE2=譚炳文、李香琴 - 擒狼記
TTITLE3=譚炳文 - 牛油蛋撻
TTITLE4=李香琴 - 風流夢
TTITLE5=陳浩德 - 相思淚
TTITLE6=櫻花 - 點解我鍾意你
TTITLE7=李龍基 - 賣花歌
TTITLE8=方伊琪 - 花間蝶
TTITLE9=呂珊 - 祗記今朝笑
TTITLE10=森森 - 一水隔天涯
TTITLE11=朱咪咪 - 今天的我
TTITLE12=葉振棠 - 浮生六劫
TTITLE13=李龍基 - 浣花洗劍錄
TTITLE14=李龍基 - 人生曲
TTITLE15=呂珊 - 隨想曲
TTITLE16=朱咪咪 - 每日懷念你
EXTD=
EXTT0=
EXTT1=
EXTT2=
EXTT3=
EXTT4=
EXTT5=
EXTT6=
EXTT7=
EXTT8=
EXTT9=
EXTT10=
EXTT11=
EXTT12=
EXTT13=
EXTT14=
EXTT15=
EXTT16=
PLAYORDER=
